<?xml version="1.0" standalone="no"?>
<!DOCTYPE svg PUBLIC "-//W3C//DTD SVG 20010904//EN"
 "http://www.w3.org/TR/2001/REC-SVG-20010904/DTD/svg10.dtd">
<svg version="1.0" xmlns="http://www.w3.org/2000/svg"
 width="500.000000pt" height="500.000000pt" viewBox="0 0 500.000000 500.000000"
 preserveAspectRatio="xMidYMid meet">
<metadata>
Created by potrace 1.16, written by Peter Selinger 2001-2019
</metadata>
<g transform="translate(0.000000,500.000000) scale(0.100000,-0.100000)"
fill="#000000" stroke="none">
<path d="M4350 3550 c-81 -8 -287 -51 -360 -74 -25 -9 -73 -22 -106 -31 -34
-8 -74 -22 -90 -30 -16 -8 -35 -15 -42 -15 -35 0 -352 -138 -477 -208 -98 -54
-250 -148 -286 -176 -15 -12 -56 -41 -90 -66 -194 -137 -458 -406 -605 -615
-51 -72 -123 -183 -144 -220 -102 -179 -239 -490 -256 -579 l-6 -36 278 2 279
3 6 58 c8 77 46 235 76 322 47 134 142 326 199 402 13 17 24 34 24 38 0 8 147
193 200 249 83 90 231 228 298 279 15 11 56 44 92 73 91 72 398 274 417 274 3
0 17 8 31 19 29 20 292 154 382 194 99 44 194 85 244 104 54 21 73 44 34 42
-12 -1 -57 -5 -98 -9z"/>
<path d="M1355 3291 c-53 -10 -139 -46 -175 -73 -17 -12 -42 -39 -56 -59 -23
-34 -26 -46 -22 -106 3 -60 8 -74 37 -111 19 -23 38 -42 43 -42 5 0 22 -9 37
-21 59 -43 205 -59 318 -35 67 14 91 27 149 78 88 77 87 195 -2 280 -72 68
-224 109 -329 89z"/>
<path d="M2560 3230 c-161 -25 -294 -52 -326 -65 -20 -8 -43 -15 -51 -15 -35
0 -240 -90 -318 -139 -91 -58 -194 -151 -216 -196 -6 -11 -19 -36 -29 -55 -27
-50 -27 -190 0 -240 10 -19 23 -44 29 -56 10 -23 160 -164 174 -164 4 0 23
-11 40 -24 71 -52 138 -76 218 -78 42 0 81 2 88 6 6 4 11 21 11 38 0 33 -27
62 -184 201 -138 123 -156 268 -48 396 44 52 152 130 218 157 22 9 53 22 69
30 36 17 184 62 240 74 180 37 393 69 583 86 171 15 26 46 -238 50 -113 1
-230 -1 -260 -6z"/>
</g>
</svg>
